<mxfile host="app.diagrams.net" modified="2024-03-12T16:21:14.140Z" agent="Mozilla/5.0 (Windows NT 10.0; Win64; x64) AppleWebKit/537.36 (KHTML, like Gecko) Chrome/122.0.0.0 Safari/537.36" version="24.0.4" etag="UjOC9vbaJTk5-h8vj7cb" type="github">
  <diagram name="第 1 页" id="3WJ0JM-4sGPxkWMZPm58">
    <mxGraphModel>
      <root>
        <mxCell id="0" />
        <mxCell id="1" parent="0" />
      </root>
    </mxGraphModel>
  </diagram>
</mxfile>
